<?xml version="1.0" standalone="no"?>
<!DOCTYPE svg PUBLIC "-//W3C//DTD SVG 1.1//EN" "http://www.w3.org/Graphics/SVG/1.1/DTD/svg11.dtd" >
<svg xmlns="http://www.w3.org/2000/svg">
<metadata>
Created by FontForge 20120731 at Thu Aug 25 13:18:45 2016
 By admin
</metadata>
<defs>
<font id="iconfont" horiz-adv-x="1024" >
  <font-face 
    font-family="iconfont"
    font-weight="500"
    font-stretch="normal"
    units-per-em="1024"
    panose-1="2 0 6 3 0 0 0 0 0 0"
    ascent="896"
    descent="-128"
    x-height="792"
    bbox="0 -204 1413 896"
    underline-thickness="50"
    underline-position="-100"
    unicode-range="U+0078-E615"
  />
<missing-glyph horiz-adv-x="374" 
d="M34 0v682h272v-682h-272zM68 34h204v614h-204v-614z" />
    <glyph glyph-name=".notdef" horiz-adv-x="374" 
d="M34 0v682h272v-682h-272zM68 34h204v614h-204v-614z" />
    <glyph glyph-name=".null" horiz-adv-x="0" 
 />
    <glyph glyph-name="nonmarkingreturn" horiz-adv-x="341" 
 />
    <glyph glyph-name="x" unicode="x" horiz-adv-x="1001" 
d="M281 543q-27 -1 -53 -1h-83q-18 0 -36.5 -6t-32.5 -18.5t-23 -32t-9 -45.5v-76h912v41q0 16 -0.5 30t-0.5 18q0 13 -5 29t-17 29.5t-31.5 22.5t-49.5 9h-133v-97h-438v97zM955 310v-52q0 -23 0.5 -52t0.5 -58t-10.5 -47.5t-26 -30t-33 -16t-31.5 -4.5q-14 -1 -29.5 -0.5
t-29.5 0.5h-32l-45 128h-439l-44 -128h-29h-34q-20 0 -45 1q-25 0 -41 9.5t-25.5 23t-13.5 29.5t-4 30v167h911zM163 247q-12 0 -21 -8.5t-9 -21.5t9 -21.5t21 -8.5q13 0 22 8.5t9 21.5t-9 21.5t-22 8.5zM316 123q-8 -26 -14 -48q-5 -19 -10.5 -37t-7.5 -25t-3 -15t1 -14.5
t9.5 -10.5t21.5 -4h37h67h81h80h64h36q23 0 34 12t2 38q-5 13 -9.5 30.5t-9.5 34.5q-5 19 -11 39h-368zM336 498v228q0 11 2.5 23t10 21.5t20.5 15.5t34 6h188q31 0 51.5 -14.5t20.5 -52.5v-227h-327z" />
    <glyph glyph-name="uniE600" unicode="&#xe600;" 
d="M834 -151h-641q-10 0 -17 7t-7 17v499q0 10 7 17t17 7h641q9 0 16 -7t7 -17v-499q0 -10 -7 -17t-16 -7zM216 -103h594v452h-594v-452zM548 -50h-69q-10 0 -17 7t-7 17v97q-38 28 -38 75q0 40 28.5 68t68 28t67.5 -28t28 -68q0 -47 -38 -75v-97q0 -10 -7 -17t-16 -7z
M502 -3h22v86q0 14 12 21q26 14 26 42q0 21 -14.5 35t-34.5 14t-34.5 -14t-14.5 -35q0 -28 26 -42q12 -7 12 -21v-86zM790.5 322q-9.5 0 -16.5 7t-7 17v102q-1 103 -75.5 176.5t-178.5 73.5t-178.5 -73.5t-75.5 -177.5v-101q0 -10 -6.5 -17t-16.5 -7t-17 7t-7 17v101
q1 124 89 211t212 87t212 -87t89 -210v-102q0 -10 -7 -17t-16.5 -7z" />
    <glyph glyph-name="uniE601" unicode="&#xe601;" 
d="M921 598h-818q-16 0 -27 -11t-11 -26v-522q0 -15 11 -26t27 -11h818q16 0 27 11t11 26v522q0 15 -11 26t-27 11zM921 561v-104h-818v104h818zM103 39v380h818v-380h-818zM288 197h-105q-11 0 -18.5 -7.5t-7.5 -18.5v-46q0 -10 7.5 -18t18.5 -8h105q11 0 18.5 8t7.5 18v46
q0 11 -7.5 18.5t-18.5 7.5zM277 136h-83v24h83v-24z" />
    <glyph glyph-name="uniE602" unicode="&#xe602;" 
d="M643 403q85 202 85 237v130h-436v-130q0 -36 84 -238q-76 -37 -122 -109.5t-46 -160.5q0 -125 88.5 -213.5t213.5 -88.5t213.5 88.5t88.5 213.5q0 88 -46 160.5t-123 110.5zM325 640v96h168v-229h33v229h169v-96q0 -29 -82 -224q-51 18 -103 18t-103 -18q-81 195 -81 224
h-1zM510 -136q-111 0 -189.5 78.5t-78.5 189.5t78.5 190t189.5 79t190 -79t79 -190t-79 -189.5t-190 -78.5zM510.5 334q-83.5 0 -142.5 -59t-59 -142.5t59 -142.5t142.5 -59t142.5 59t59 142.5t-59 142.5t-142.5 59zM510.5 -36q-69.5 0 -119 49.5t-49.5 119t49.5 118.5
t119 49t118.5 -49t49 -118.5t-49 -119t-118.5 -49.5z" />
    <glyph glyph-name="uniE603" unicode="&#xe603;" 
d="M272 582q0 -97 69 -164l9 -9l43 -43q125 -127 213 -213l10 -10q49 -48 49 -117q0 -12 -2 -25q-9 -58 -53 -98l-2 -2q-3 -2 -8 -6l-5 4l4 -5l-3 -2q-3 -2 -8 -5q-3 -2 -5 -3q-3 -2 -7 -4q-3 -2 -7 -3q-3 -2 -6.5 -3.5t-7.5 -2.5q-5 -2 -7 -2q-3 -1 -8 -2l-2 -1
q-3 -1 -5 -1q-3 -1 -10 -2h-2h-4q-8 -1 -16 -1q-67 0 -115 48t-48 116q0 48 26 88q6 10 4.5 21.5t-9.5 19.5t-19.5 9.5t-21.5 -4.5q-40 -26 -88 -26q-68 0 -116 48t-48 116q0 57 35 101.5t91 57.5q31 16 21 42q-8 21 -31 21q-9 0 -15 -2q-74 -21 -120.5 -82.5t-46.5 -137.5
q0 -95 67.5 -162.5t162.5 -67.5q19 0 38 3l8 2l-1 -9q-3 -19 -3 -38q0 -95 67.5 -162.5t161.5 -67.5q11 0 23 1q1 0 4 1h3q10 2 14 3q3 0 7 1h2q8 2 12 4q3 0 9 2q7 3 11 5q5 1 9.5 3.5t9.5 5t10 4.5q2 2 8 5q6 4 10 6q1 2 4 4l3 2q6 5 9 7l2 2q21 18 38 41q5 7 10 16v1
q5 8 9 16l2 3q3 7 6 16l1 3q3 9 6 17h6l-6 2q8 30 8 59q0 97 -69 164l-9 9q-12 12 -43 44q-128 128 -213 212l-10 10q-50 48 -50 117q0 12 3 25q9 58 53 98l2 2q3 2 8 6l4 3q3 2 7 5q3 2 6 3q3 2 7 4t7 3q4 2 7 3q3 2 7 3q5 2 7 2q2 1 8 3h2q3 1 5 1q4 1 10 2h2h3q9 1 16 1
q68 0 116 -48t48 -116q0 -48 -26 -88q-6 -10 -4.5 -21.5t9.5 -19.5t19.5 -9.5t21.5 4.5q40 27 88 27q68 0 116 -48.5t48 -115.5q0 -58 -35 -102.5t-91 -57.5q-7 0 -17 -11q-2 -2 -3 -5q-6 -11 -1 -26q7 -21 32 -21q7 0 13 2q74 21 121 82.5t47 138.5q0 95 -67.5 162
t-162.5 67q-19 0 -39 -3l-8 -1l2 8q3 19 3 38q0 95 -67.5 162.5t-162.5 67.5q-10 0 -22 -1q-2 0 -4 -1h-3q-10 -1 -14 -2q-3 -1 -7 -2h-2l-12 -3q-4 -1 -9 -3q-7 -3 -11 -4q-5 -2 -9.5 -4.5t-9.5 -4.5l-10 -5q-2 -2 -8 -5q-7 -4 -10 -6l-4 -4l-3 -2q-6 -5 -9 -7l-2 -2
q-21 -18 -38 -41q-5 -7 -10 -15l-1 -2l-8 -16l-2 -3l-6 -16l-1 -3q-3 -8 -6 -17h-6l6 -2q-8 -30 -8 -59z" />
    <glyph glyph-name="uniE604" unicode="&#xe604;" horiz-adv-x="1229" 
d="M877 299h209q-3 -4 -6.5 -7t-6.5 -5l-2 -3l-427 -399q-12 -12 -30 -12t-30 12l-428 401q-3 1 -14 13h253q15 0 27 9t15 23l48 187l130 -444q5 -14 16.5 -22.5t26.5 -8.5q14 0 26 8.5t16 22.5l100 323l38 -75q13 -23 39 -23zM1228 584q0 -96 -70 -200h-253l-76 148
q-6 11 -18 17.5t-25 5.5q-31 -3 -38 -31l-89 -286l-134 457q-4 13 -16 21.5t-27 8.5t-27 -9t-15 -23l-79 -309h-290q-71 104 -71 200q0 147 87 229.5t241 82.5q42 0 86.5 -14.5t82.5 -38.5t65 -45.5t52 -45.5q25 24 52.5 45.5t65.5 45.5t82 38.5t87 14.5q153 0 240 -82.5
t87 -229.5z" />
    <glyph glyph-name="uniE605" unicode="&#xe605;" 
d="M557 896q-88 0 -167 -37q-102 -48 -164 -143.5t-62 -211.5v-52v-12l-80 -152q-15 -29 -2.5 -49.5t44.5 -20.5h38v-1v-67v-77q0 -34 24 -58t58 -24l113 17v-113v-1q0 -11 8.5 -17.5t19.5 -4.5l407 72q11 2 19 12t8 22v17v15v207q60 54 93.5 129t33.5 159q0 106 -52.5 196
t-142.5 142.5t-196 52.5zM642 539q-79 -137 -118 -206h-1q-5 -10 -12 -8q-7 3 -5 14q7 35 10 52q3 15 8.5 45t8.5 45q0 1 1 9q-7 1 -10 1q-11 0 -33.5 -0.5t-33.5 -0.5q-19 0 -9 17q78 137 118 206q6 10 13 8q6 -2 4 -14q-6 -34 -9 -52l-9 -45q-6 -30 -8 -45q0 -1 -1 -9
q7 -1 10 -1q11 0 33 0.5t34 0.5q19 0 9 -17z" />
    <glyph glyph-name="uniE606" unicode="&#xe606;" 
d="M974 305q-4 29 -21 51t-40.5 32t-40 14.5t-31.5 6.5q-7 0 -9 7q-4 25 -40 43q-1 1 -4 1h-607q-13 0 -22 -7t-14 -18t-6.5 -17.5t-2.5 -11.5v-1q2 -78 20 -146.5t40.5 -110.5t51.5 -77t45.5 -48.5t30.5 -22.5q5 -3 11 -3h307q7 0 13 4q42 35 100 122q2 4 8 4
q14 -1 47.5 1.5t51.5 5.5q12 3 31.5 16t40 34t33 53.5t7.5 67.5zM356 50q-39 28 -67.5 70t-42 80t-21 81.5t-9 67t-0.5 43.5q0 8 9 8h65q4 0 6.5 -3.5t1.5 -7.5q-9 -32 -9.5 -67.5t6.5 -69.5t15.5 -62t21 -56t18.5 -39l11 -23q6 -11 5 -16t-6 -6h-4zM855 190
q-29 -18 -57 -13q-5 1 -7 5.5t1 8.5q32 55 38 154q0 5 4 7l2 2q2 1 3 2l3 1q2 1 4 0.5t5 -0.5t6 -1.5t7.5 -3.5t9 -5.5t10 -9t12.5 -11.5q18 -19 21 -40t-7 -39.5t-24.5 -33t-30.5 -23.5zM112 -94h721q32 0 51 28q9 13 2 26.5t-23 13.5h-782q-15 0 -22 -13.5t1 -26.5
q20 -28 52 -28zM319 737q4 12 -6.5 18t-18.5 -3q-54 -62 0 -111q57 -51 60 -84q2 -16 18 -17.5t21 13.5q6 18 3 36q-4 22 -19.5 44.5t-31 37t-24.5 32t-3 33.5q0 1 1 1zM600 778q4 11 -6.5 17.5t-18.5 -2.5q-54 -62 0 -111q57 -52 60 -85q2 -15 18 -16.5t21 13.5q6 18 3 36
q-4 22 -19.5 44.5t-30.5 37t-24.5 32t-3.5 33.5q1 0 1 1zM466 830q3 9 -4.5 15.5t-16.5 1.5q-40 -22 -49 -68q-5 -13 -3 -27t2.5 -23t6.5 -19.5t10.5 -17t13 -15.5t14 -14.5t15 -14t14.5 -13.5q32 -32 17 -90q-4 -16 11 -22.5t25 6.5q15 21 21 46q5 18 4.5 34t-1.5 26
t-10 24.5t-12.5 19t-18.5 20.5t-18 20q-19 22 -24.5 54.5t3.5 56.5z" />
    <glyph glyph-name="uniE607" unicode="&#xe607;" 
d="M268 192v-47h117q-1 12 -1 23.5t1 23.5h-117zM448 354h-180v-46h150q13 25 30 46zM547 843h-140v-46h140v46zM468 -41h-317q-9 0 -16 7t-7 16v791q0 10 7 17t16 7h112q28 -10 28 -47q0 -23 17.5 -34.5t34.5 -11.5h18h232h7q5 0 16.5 3t20.5 8t17 16t9 26q3 31 28 40h112
q10 0 16.5 -7t6.5 -17v-336q25 -13 47 -30v390q0 19 -14 32.5t-33 13.5h-139q-3 1 -8 1.5t-17 -0.5t-21 -5t-16.5 -14.5t-7.5 -27.5q0 -40 -38 -47h-196q-46 6 -46 47q0 25 -17 36.5t-35 10.5l-17 -1h-140q-19 0 -32.5 -13.5t-13.5 -32.5v-838q0 -19 13.5 -33t32.5 -14h397
q-31 20 -57 47zM687 517h-419v-46h419v46zM687 424q-107 0 -181.5 -75t-74.5 -181t75 -181t181 -75t180.5 75t75 181t-74.5 181t-181 75zM826 145h-163v163h47v-116h116v-47zM826 145z" />
    <glyph glyph-name="uniE608" unicode="&#xe608;" horiz-adv-x="1752" 
d="M901 682q-63 0 -107 -44t-44 -106.5t44 -106.5t106.5 -44t107 44t44.5 106.5t-44.5 106.5t-106.5 44v0zM901 896q-105 0 -199.5 -40.5t-163 -109t-109 -163.5t-40.5 -199t40.5 -199t109 -163.5t163 -109t199 -40.5t199 40.5t163 109t109.5 163.5t41 199t-41 199
t-109.5 163.5t-163 109t-198.5 40.5v0zM1165 79q-5 0 -11 5t-9 9l-3 5q-15 97 -83 161.5t-158 64.5t-158.5 -64.5t-83.5 -161.5q-4 -18 -23 -19q-18 -2 -27.5 4t-9.5 8v7q3 87 54.5 157.5t132.5 103.5q-43 28 -68 73.5t-25 98.5q0 86 61 147t147 61t146.5 -61t60.5 -147
q0 -53 -25 -98.5t-68 -73.5q82 -33 133 -103.5t54 -157.5q0 -1 -0.5 -2.5t-3 -5.5t-6 -6.5t-11 -4t-16.5 -0.5v0zM1165 79z" />
    <glyph glyph-name="uniE609" unicode="&#xe609;" 
d="M931 538q-15 15 -33 17.5t-29 -8.5l-466 -419l-251 250q-6 6 -21.5 0.5t-30 -20.5t-20.5 -30t1 -22l296 -297q10 -8 27 -7q14 2 25 13l511 460q11 11 8.5 29.5t-17.5 33.5z" />
    <glyph glyph-name="uniE60A" unicode="&#xe60a;" 
d="M648 385l222 222q25 25 25 60t-25 59l-29 30q-25 24 -60 24t-59 -24l-223 -223l-222 223q-25 24 -60 24t-59 -24l-30 -30q-24 -24 -24 -59t24 -60l223 -222l-223 -223q-24 -25 -24 -59.5t24 -59.5l30 -29q24 -25 59 -25t60 25l222 222l223 -222q24 -25 59 -25t60 25
l29 29q25 25 25 59.5t-25 59.5z" />
    <glyph glyph-name="uniE60B" unicode="&#xe60b;" 
d="M517 824q-91 0 -174 -35.5t-143 -95.5t-95.5 -143t-35.5 -174t35.5 -174t95.5 -143t143 -95.5t174 -35.5t174 35.5t143 95.5t95.5 143t35.5 174t-35.5 174t-95.5 143t-143 95.5t-174 35.5zM320 489q2 0 0 10.5t2 28.5t9 39t20 43t34.5 39.5t53.5 28.5t77 11t77.5 -11
t54.5 -28.5t34.5 -38.5t20.5 -42.5t9 -38.5t3 -28l-1 -11q1 -3 0.5 -7.5t-4 -18t-10 -27t-21 -31.5t-34.5 -34q-11 -8 -27 -20t-22 -16t-15 -13t-11.5 -14.5t-6 -16.5t-4 -23t-0.5 -31h-98q-1 5 -2 13.5t1.5 33.5t11.5 47.5t34.5 49.5t64.5 47q23 12 32 29t9 57
q0 41 -23.5 64.5t-62.5 23.5q-23 0 -39 -3t-32.5 -14t-25 -35t-8.5 -61zM460 162h99v-99h-99v99z" />
    <glyph glyph-name="uniE60C" unicode="&#xe60c;" 
d="M706 311q17 -18 41 -18q25 0 42 18q17 17 17 41t-17 41h-1q-17 17 -41 17q-23 0 -41 -17q-17 -17 -17 -41t17 -41zM735 364v0q5 5 12.5 5t11.5 -5q6 -4 6 -12q0 -7 -6 -12q-5 -6 -12 -6t-12 6q-5 4 -5 11.5t5 12.5zM548 311q17 -18 41.5 -18t40.5 18q17 16 17 40.5
t-17 41.5t-41 17q-23 0 -41 -17q-17 -17 -17 -41t17 -41zM577 364v0q5 5 12 5q8 0 12 -5q5 -4 5 -12q0 -7 -5 -12q-5 -6 -12 -6q-6 0 -12 6q-5 4 -5 11.5t5 12.5zM548 155q18 -17 41 -17q24 0 41 17v1q17 16 17 40q0 25 -17 42t-41 17q-23 0 -41 -17q-17 -18 -17 -42t17 -40
v-1zM577 209v0q6 5 12 5q7 0 12 -5t5 -13q0 -7 -5 -12t-12 -5t-12 5t-5 12q0 8 5 13zM548 0q18 -17 41 -17q24 0 41 17t17 41.5t-17 40.5q-17 18 -41 18q-23 0 -41 -18q-17 -17 -17 -41t17 -41zM577 53v0q5 5 12 5q8 0 12 -5q5 -4 5 -11.5t-5 -12.5q-4 -5 -12 -5q-7 0 -12 5
t-5 12.5t5 11.5zM231 155q18 -17 42 -17q23 0 41 17v1q17 16 17 40q0 25 -17 42q-18 17 -41 17q-24 0 -42 -17q-17 -18 -17 -42t17 -40v-1zM260 209v0q6 5 12.5 5t12.5 -5q5 -4 5 -13q0 -7 -5 -12t-12.5 -5t-12.5 5q-5 6 -5 12q0 8 5 13zM231 0q18 -17 42 -17t41 17t17 41.5
t-17 40.5q-17 18 -41 18t-42 -18q-17 -17 -17 -41t17 -41v0zM260 53v0q5 5 12.5 5t12.5 -5q5 -4 5 -12t-5 -12q-5 -5 -12.5 -5t-12.5 5t-5 12t5 12zM390 311q16 -18 40.5 -18t41.5 18q17 16 17 40.5t-17 41.5t-41 17t-41 -17h-1q-17 -17 -17 -41t17 -41h1zM419 364v0
q4 5 11.5 5t12.5 -5q5 -4 5 -12q0 -7 -5 -12q-5 -6 -12 -6t-12.5 5.5t-5.5 12.5t6 12zM921 744h-823q-14 0 -24 -10t-10 -24v-823q0 -15 10 -25t24 -10h823q15 0 25 10t10 25v823q0 14 -10 24t-25 10zM887 -80h-754v555h754v-555zM887 516h-754v160h67v-52q0 -14 10 -24
t24.5 -10t24.5 10t10 24v52h115v-52q0 -14 10 -24t24 -10t24.5 10t10.5 24v52h115v-52q0 -14 10 -24t24 -10t24 10t10 24v52h115v-52q0 -14 10.5 -24t24.5 -10t24 10t10 24v52h67v-160zM390 0q17 -17 41 -17t41 17t17 41.5t-17 40.5q-17 18 -41 18t-41 -18h-1
q-17 -17 -17 -41t17 -41h1zM419 53v0q4 5 12 5t12 -5q5 -4 5 -12t-5 -12q-4 -5 -12 -5t-12 5q-6 5 -6 12t6 12zM390 155q17 -17 41 -17t41 17v1q17 16 17 40q0 25 -17 42q-18 17 -41 17q-24 0 -41 -17h-1q-17 -17 -17 -42q0 -24 17 -40zM419 209v0q5 5 12 5t12 -5t5 -13
q0 -7 -5 -12t-12.5 -5t-11.5 5q-6 6 -6 12q0 7 6 13zM706 155q18 -17 41 -17q24 0 41 17l1 1q17 16 17 40t-17 42h-1q-17 17 -41 17q-23 0 -41 -17q-17 -17 -17 -42q0 -24 17 -40v-1zM735 209v0q6 5 12.5 5t11.5 -5q6 -5 6 -13q0 -7 -6 -12q-4 -5 -11.5 -5t-12.5 5
q-5 6 -5 12q0 8 5 13z" />
    <glyph glyph-name="uniE60D" unicode="&#xe60d;" 
d="M874 34v579h-193v169h-531v-748h-97v-48h918v48h-97zM633 34h-435v700h435v-700zM826 34h-145v531h145v-531zM246 468h145v-72h-145v72zM440 468h144v-72h-144v72zM246 348h145v-73h-145v73zM440 348h144v-73h-144v73zM246 227h145v-72h-145v72zM440 227h144v-72h-144v72
zM729 517h49v-121h-49v121zM729 300h49v-121h-49v121zM391 686h49v-145h-49v145zM488 638v-49h-145v49h145z" />
    <glyph glyph-name="uniE60E" unicode="&#xe60e;" 
d="M809 520q0 123 -88 210t-212.5 87t-212.5 -87t-88 -210q0 -69 30.5 -130t84.5 -103q-96 -48 -156 -137t-68 -197h45q8 102 69 185.5t154 119.5q74 -35 141 -35q68 0 130 30l31 18l25 16q53 42 84 103t31 130zM508 272q-104 0 -177.5 72.5t-73.5 175.5t73.5 176t178 73
t178 -73t73.5 -176q0 -104 -72 -176t-180 -72zM763 244l-1 -1q-8 8 -18 8q-28 0 -28 -21q0 -16 15 -24q118 -85 131 -253h55q-6 86 -46.5 162t-107.5 129z" />
    <glyph glyph-name="uniE610" unicode="&#xe610;" 
d="M454 620q24 31 58 31t58 -31l390 -503h-896z" />
    <glyph glyph-name="uniE611" unicode="&#xe611;" 
d="M508 730q-118 0 -218.5 -58t-158.5 -158t-58 -218.5t58 -218.5t158.5 -158t218.5 -58q88 0 168.5 34.5t139 92.5t93 138.5t34.5 169t-34.5 169t-93 139t-139 92.5t-168.5 34zM599 -10h-76q6 37 6 90v463h-43q-35 0 -70 -5v64q26 -4 67 -4h50q33 0 66 4q-7 -74 -7 -133
v-389q0 -51 7 -90z" />
    <glyph glyph-name="uniE612" unicode="&#xe612;" 
d="M508 731q-118 0 -218.5 -58.5t-158.5 -158.5t-58 -218t58 -218.5t158.5 -158.5t218.5 -58q88 0 168.5 34.5t139 92.5t93 138.5t34.5 169t-34.5 169t-93 139t-139 93t-168.5 34.5zM509 -20q-121 0 -179 65q-22 26 -41 78l68 17q9 -31 19.5 -47t28.5 -29q41 -29 104 -29
q69 0 110 33.5t41 90.5q0 59 -42 90.5t-121 31.5q-28 0 -64 -4v63q27 -4 59 -4q80 0 117 36q32 31 32 78q0 51 -34.5 80t-94.5 29q-74 0 -107 -43q-14 -18 -25 -56l-67 14q18 54 44 80q53 58 159 58q87 0 138 -42t51 -114q0 -37 -14.5 -68t-41.5 -49q-26 -20 -75 -29
q62 -6 99 -34q53 -42 53 -121q0 -81 -58 -128t-159 -47z" />
    <glyph glyph-name="uniE613" unicode="&#xe613;" 
d="M508 731q-118 0 -218.5 -58.5t-158.5 -158.5t-58 -218t58 -218.5t158.5 -158.5t218.5 -58t218 58t158.5 158.5t58.5 218.5q0 88 -34.5 168.5t-93 139t-139 93t-168.5 34.5zM723 -16q-48 4 -99 4h-243q-56 0 -88 -4q7 48 10.5 65.5t12.5 40.5q29 73 104 138
q21 17 35.5 27.5t87.5 60.5q59 40 82 70t23 67q0 46 -36 73t-97 27q-79 0 -116 -52q-20 -29 -28 -81l-67 12q9 43 20 68t31 47q54 61 160 61q91 0 145 -42t54 -113q0 -61 -47 -113q-18 -21 -42.5 -39t-93.5 -65q-47 -31 -71.5 -52t-44.5 -46q-33 -44 -45 -93h255q55 0 98 6
v-67z" />
    <glyph glyph-name="uniE614" unicode="&#xe614;" 
d="M540 182v257l-182 -257h182zM507 730q-118 0 -218 -58t-158.5 -158t-58.5 -218.5t58.5 -218.5t158.5 -158t218 -58q89 0 169.5 34t138.5 92.5t92.5 139t34.5 169t-34.5 169t-92.5 138.5t-138.5 92.5t-169.5 34.5zM676 122h-75v-144h-61v144h-296l345 490h12v-430h75v-60z
" />
    <glyph glyph-name="uniE615" unicode="&#xe615;" 
d="M516 731q-119 0 -219 -58.5t-158 -158.5t-58 -218t58 -218.5t158 -158.5t218.5 -58t218.5 58t158 158.5t58 218.5q0 88 -34 168.5t-92.5 139t-139 93t-168.5 34.5zM675 56q-61 -77 -166 -77q-86 0 -140.5 48.5t-61.5 127.5l81 7q9 -59 42 -89t79 -30q56 0 94.5 42
t38.5 112q0 66 -37 104.5t-97 38.5q-37 0 -67.5 -17t-47.5 -44l-73 9l61 324h314v-74h-252l-34 -169q57 39 120 39q82 0 139 -57t57 -147q0 -86 -50 -148z" />
  </font>
</defs>
</svg>
